# ProBuilder 6.0.5
# https://unity3d.com/unity/features/worldbuilding/probuilder
# 21/05/2025 10.56.28

mtllib ./Sock.mtl
o Sock

g Sock
v -3.990969 0 24.63173
v -3.96913 0 24.63067
v -3.973553 0.001420364 24.61711
v -3.995258 0.001420364 24.61752
v -3.998341 0.001275214 24.5987
v -3.976635 0.001275214 24.59949
v -3.998462 0.002714513 24.58126
v -3.976514 0.002714513 24.5829
v -3.998193 -0.001259304 24.56306
v -3.973083 -0.006093405 24.56632
v -3.951652 0.001420364 24.61895
v -3.947229 0 24.63251
v -3.954734 0.001275214 24.60133
v -3.954613 0.002714513 24.58475
v -3.951181 -0.006093405 24.56957
v -3.928677 0.001420364 24.62256
v -3.924254 0 24.63612
v -3.93176 0.001275214 24.60494
v -3.931638 0.002714513 24.58835
v -3.928207 -0.006093405 24.5731
v -3.908331 0.001420364 24.62577
v -3.905321 0 24.64299
v -3.908606 0.001275214 24.60815
v -3.908485 0.002714513 24.59156
v -3.905053 -0.004923034 24.57533
v -3.890944 0.001420364 24.63053
v -3.887933 0 24.65128
v -3.891219 0.001275214 24.61058
v -3.891097 0.002714513 24.5906
v -3.88209 -0.003047852 24.56424
v -3.875227 0.001420364 24.63339
v -3.868181 0 24.65414
v -3.876461 0.001275214 24.61074
v -3.874912 0.002714513 24.58633
v -3.867167 -0.002940547 24.55618
v -3.856364 0.001420364 24.6179
v -3.849318 0 24.63865
v -3.857598 0.001275213 24.59796
v -3.856049 0.002714512 24.57887
v -3.848305 -0.002940547 24.54451
v -3.837494 0.001420364 24.60351
v -3.834582 0 24.61441
v -3.838727 0.001275213 24.58587
v -3.837179 0.002714512 24.56593
v -3.822405 -0.002940547 24.52773
v -3.816726 0.001420364 24.58275
v -3.813814 0 24.59253
v -3.81796 0.001275213 24.56691
v -3.816411 0.002714512 24.55127
v -3.808491 -0.002940547 24.51855
v -3.799258 0.001420364 24.56457
v -3.795134 0 24.5768
v -3.800509 0.001275213 24.55246
v -3.800156 0.002714512 24.54244
v -3.795913 -0.002940547 24.51568
v -3.785371 0.001420364 24.553
v -3.782242 0 24.56522
v -3.786913 0.001275213 24.54549
v -3.788835 0.002714512 24.53671
v -3.786484 -0.002940547 24.51771
v -3.776736 0.001420364 24.54785
v -3.77193 0 24.55221
v -3.779964 0.001275213 24.54166
v -3.781454 0.002714512 24.53513
v -3.778078 -0.002940547 24.52405
v -3.770019 0.001420364 24.54278
v -3.772242 0 24.54583
v -3.770163 0.001275213 24.53861
v -3.772098 0.002714512 24.53627
v -3.774756 -0.002940547 24.52895

vt 0 0
vt -0.02183886 -0.001063157
vt -0.01741305 -0.01469377
vt 0.004292061 -0.01427976
vt 0.007371716 -0.03301877
vt -0.01433343 -0.03222917
vt 0.007485073 -0.05052635
vt -0.01446269 -0.04888237
vt 0.007536593 -0.04876169
vt -0.01440834 -0.04707893
vt 0.007202314 -0.06739306
vt -0.0179833 -0.0651449
vt -0.03932815 -0.01281969
vt -0.04373824 0.0008161741
vt -0.03623347 -0.03038548
vt -0.03637457 -0.04702156
vt -0.01829893 -0.06033288
vt -0.01420537 -0.04168947
vt -0.04013622 -0.05667668
vt -0.03604266 -0.03928699
vt -0.06230665 -0.009154405
vt -0.0667045 0.004485407
vt -0.05920712 -0.02677819
vt -0.05936166 -0.04338151
vt -0.04016375 -0.05555248
vt -0.03598797 -0.0381704
vt -0.06305325 -0.05150576
vt -0.05887747 -0.03405875
vt -0.08264999 -0.005926179
vt -0.08563508 0.01135474
vt -0.08236111 -0.02357004
vt -0.08251066 -0.04016947
vt -0.06279024 -0.05368213
vt -0.05931655 -0.03608185
vt -0.08593815 -0.05111717
vt -0.08247006 -0.03324721
vt -0.1000307 -0.001112998
vt -0.1030064 0.01968455
vt -0.0997485 -0.02113457
vt -0.08247003 -0.04028916
vt -0.09985722 -0.04125408
vt -0.07964061 -0.06506978
vt -0.07888035 -0.04682
vt -0.1019646 -0.07753864
vt -0.09532195 -0.05025955
vt -0.1157507 0.001663478
vt -0.1227776 0.02246456
vt -0.1145081 -0.02097856
vt -0.115984 -0.04564098
vt -0.1144631 -0.02118262
vt -0.1071554 -0.07025106
vt -0.09912687 -0.04295813
vt -0.1219215 -0.07859178
vt -0.1151247 -0.04772057
vt -0.1155679 0.001313581
vt -0.1344127 -0.01419813
vt -0.141514 0.006577746
vt -0.1333753 -0.03376835
vt -0.1346097 -0.01382081
vt -0.1348162 -0.05312415
vt -0.1222371 -0.07805229
vt -0.1153383 -0.04717772
vt -0.140923 -0.09000481
vt -0.1340242 -0.05501612
vt -0.1532843 -0.02860163
vt -0.1562523 -0.01765055
vt -0.1522454 -0.04585693
vt -0.1534799 -0.02821532
vt -0.133102 -0.03434711
vt -0.1534115 -0.06647501
vt -0.151944 -0.04647962
vt -0.1412011 -0.0895381
vt -0.1342167 -0.05455459
vt -0.166901 -0.1066191
vt -0.1529415 -0.06770092
vt -0.1525246 -0.02981663
vt -0.1555662 -0.01886304
vt -0.1731835 -0.05068653
vt -0.1762251 -0.04083915
vt -0.1730139 -0.0648227
vt -0.1742487 -0.04897968
vt -0.1741583 -0.08114938
vt -0.1726895 -0.06544258
vt -0.1805471 -0.1161952
vt -0.1734291 -0.08281069
vt -0.1729328 -0.05102779
vt -0.175988 -0.04118395
vt -0.1902858 -0.06931277
vt -0.1945448 -0.0570536
vt -0.190464 -0.07926527
vt -0.1917162 -0.06715479
vt -0.1727008 -0.06552713
vt -0.1904035 -0.09010787
vt -0.1901271 -0.07999095
vt -0.182196 -0.1132344
vt -0.1745187 -0.07997353
vt -0.1947626 -0.1161564
vt -0.1907594 -0.08878084
vt -0.191059 -0.06831307
vt -0.1952777 -0.05603328
vt -0.2049062 -0.07993406
vt -0.2081331 -0.06766082
vt -0.2040597 -0.0862304
vt -0.2056024 -0.07872392
vt -0.1900925 -0.09077775
vt -0.1898468 -0.08064865
vt -0.201383 -0.09656608
vt -0.2034058 -0.08768989
vt -0.1949961 -0.1125805
vt -0.1905082 -0.0852648
vt -0.2044155 -0.1105054
vt -0.2018185 -0.0907772
vt -0.2051417 -0.07971372
vt -0.2083501 -0.06743539
vt -0.2137617 -0.08488768
vt -0.2186436 -0.08043628
vt -0.2110075 -0.09007011
vt -0.2142369 -0.08387781
vt -0.2019286 -0.09534548
vt -0.2038977 -0.08645722
vt -0.2093054 -0.09694977
vt -0.210843 -0.090281
vt -0.2009022 -0.1003242
vt -0.1974632 -0.0806573
vt -0.2091368 -0.09376661
vt -0.2046936 -0.08180656
vt -0.2121409 -0.08779685
vt -0.2170924 -0.08336943
vt -0.2187979 -0.09294281
vt -0.2167836 -0.08965107
vt -0.2208098 -0.09310579
vt -0.2209544 -0.08892854
vt -0.2095099 -0.09353709
vt -0.2109597 -0.08683889
vt -0.2188619 -0.0923676
vt -0.2207571 -0.08975542
vt -0.1902733 -0.07429677
vt -0.1846708 -0.06268685
vt -0.1932211 -0.06916122
vt -0.1929728 -0.060312
vt -0.004273626 -0.01415653
vt -0.007357541 -0.03297053
vt -0.007463176 -0.05035925
vt -0.007237163 -0.06867912
vt 0.01781857 -0.06557612
vt 0.0397184 -0.06233323
vt 0.06269152 -0.05881047
vt 0.08585671 -0.05656063
vt 0.1088389 -0.06759524
vt 0.1237618 -0.07564964
vt 0.1426236 -0.08732141
vt 0.1685215 -0.104099
vt 0.1824352 -0.1132793
vt 0.195012 -0.1161566
vt 0.2044399 -0.1141276
vt 0.2128456 -0.1077974
vt 0.2161673 -0.1028991
vt 0.218887 -0.09540529
vt 0.2208069 -0.09311209
vt 0.2209522 -0.08893445
vt 0.2187138 -0.08593768
vt 0.2190254 -0.07955515
vt 0.208714 -0.06655374
vt 0.1958227 -0.05496791
vt 0.177144 -0.03923938
vt 0.1563773 -0.0173696
vt 0.1416422 0.006867761
vt 0.1227804 0.02235615
vt 0.1030293 0.01950142
vt 0.08564296 0.01122407
vt 0.06671055 0.004359899
vt 0.04373743 0.0007627834
vt 0.0218376 -0.001071277

vn 0.003438225 0.9949038 0.1007408
vn 0.004999219 0.9947121 0.1025814
vn 0.001877231 0.9950956 0.09890012
vn -0.0001459352 0.9999704 -0.007688456
vn 0.0003016339 0.9999656 -0.008291108
vn -0.00299253 0.9966067 0.08225661
vn -0.004732146 0.9964234 0.08432469
vn -0.006471763 0.9962401 0.08639278
vn 0.01595765 0.9769171 -0.2130217
vn 0.119955 0.9280374 -0.3168244
vn 0.2239523 0.8791577 -0.420627
vn -0.009010036 0.9942075 0.1070991
vn 0.000703428 0.9999648 -0.0083614
vn -0.007267526 0.9962351 0.08638652
vn 0.06786162 0.8868633 -0.4570211
vn 0.05473369 0.8775072 -0.475787
vn 0.04160576 0.8681511 -0.494553
vn -0.01722803 0.9938112 0.1097387
vn 0.001329872 0.9999633 -0.008470991
vn -0.01355388 0.996174 0.08633522
vn 0.07501394 0.8696792 -0.4878843
vn 0.07564206 0.8702009 -0.4868542
vn 0.07627018 0.8707226 -0.4858241
vn -0.02456874 0.9947239 0.09871759
vn -0.0318302 0.9956408 0.08767104
vn -0.01196435 0.9961932 0.08634852
vn 0.0041475 0.8663024 -0.4995026
vn 0.03082713 0.8871443 -0.4572688
vn 0.05750677 0.9079862 -0.4150351
vn -0.02363959 0.9959914 0.08626841
vn -0.02929023 0.9963443 0.07978795
vn -0.03494088 0.9966971 0.07330749
vn 0.001579044 0.9999683 -0.007780262
vn 0.002001506 0.9999713 -0.007304133
vn 0.004780995 0.9962425 0.08647531
vn -0.002636241 0.9968066 0.07912156
vn -0.01005348 0.9973707 0.07176782
vn -0.2893749 0.8411292 -0.4569068
vn -0.1506982 0.9085649 -0.3371715
vn -0.01202148 0.9760005 -0.2174362
vn -0.01277715 0.9974551 0.07014342
vn -0.01159332 0.9974093 0.07098092
vn 7.806688E-05 0.9999735 -0.00727762
vn 0.0006284917 0.9999759 -0.006874793
vn 0.001178917 0.9999784 -0.006471965
vn 0.01898854 0.9972286 0.07193394
vn 0.009178859 0.9977489 0.06537049
vn -0.0006308217 0.9982692 0.05880702
vn -0.1465696 0.9547563 -0.258762
vn -0.09928651 0.9668895 -0.2278828
vn -0.05200341 0.9790226 -0.1970035
vn 0.04385516 0.9976094 0.05340613
vn -0.004188349 0.9999722 -0.006179575
vn -0.004937356 0.999966 -0.006552169
vn -0.005686363 0.9999599 -0.006924763
vn 0.02385544 0.9978929 0.06033783
vn 0.03884219 0.9966399 0.06987856
vn 0.05382893 0.9953869 0.07941929
vn -0.1334799 0.9672862 -0.2157324
vn -0.1018012 0.9744653 -0.1965473
vn -0.07012257 0.9816443 -0.1773622
vn 0.04138348 0.9976695 0.05424967
vn 0.09406919 0.9914062 0.07172439
vn 0.1467549 0.9851429 0.08919912
vn -0.004483891 0.9999654 -0.006999181
vn -0.005221137 0.9999586 -0.007405018
vn -0.005958383 0.9999518 -0.007810854
vn 0.05448512 0.9953471 0.07946952
vn 0.05147865 0.9956509 0.07756637
vn 0.04847218 0.9959546 0.07566322
vn -0.1216701 0.974637 -0.1878272
vn -0.1279222 0.9730393 -0.1917638
vn -0.1341742 0.9714416 -0.1957004
vn 0.1017673 0.989586 0.1017988
vn 0.1083514 0.9884734 0.1054626
vn 0.1149356 0.9873608 0.1091264
vn -0.00706147 0.9999451 -0.007733649
vn -0.00777927 0.9999365 -0.008116676
vn -0.00849707 0.9999278 -0.008499704
vn 0.05368775 0.9956578 0.07604688
vn 0.07261749 0.9931991 0.08815424
vn 0.09154724 0.9907405 0.1002616
vn -0.1275568 0.9728041 -0.1933428
vn -0.1350804 0.9708767 -0.1976682
vn -0.1426039 0.9689493 -0.2019936
vn 0.113883 0.9874467 0.1094521
vn 0.09476365 0.9902635 0.09964128
vn 0.07564433 0.9930803 0.0898305
vn -0.007123157 0.9999376 -0.008606795
vn -0.009191319 0.9999079 -0.009714099
vn -0.01125948 0.9998781 -0.0108214
vn 0.05251869 0.993928 0.09668987
vn 0.08636709 0.9879959 0.1209722
vn 0.1202155 0.9820638 0.1452544
vn -0.04109501 0.9828405 -0.1798214
vn -0.08127191 0.9749634 -0.2017077
vn -0.1214488 0.9670863 -0.2235941
vn 0.07504095 0.9931074 0.09003708
vn 0.0796539 0.992565 0.09189674
vn 0.08426686 0.9920226 0.09375641
vn -0.005834707 0.9999182 -0.01138239
vn -0.009796788 0.9998436 -0.01394541
vn -0.01375887 0.999769 -0.01650843
vn 0.07299434 0.9868413 0.1442781
vn 0.07376102 0.9867024 0.1448336
vn 0.0745277 0.9865636 0.1453892
vn 0.04312687 0.9788488 -0.1999877
vn -0.05409539 0.9604999 -0.2495384
vn -0.1513177 0.9421511 -0.2990892
vn 0.0597192 0.9931757 0.1001773
vn 0.1138118 0.9849732 0.1166606
vn 0.1679044 0.9767706 0.1331439
vn -0.009581301 0.9998032 -0.0173673
vn -0.01012048 0.9997933 -0.01762429
vn -0.01065965 0.9997833 -0.01788128
vn 0.0331941 0.9874231 0.1545763
vn 0.06927883 0.9816724 0.1727804
vn 0.1053636 0.9759218 0.1909845
vn 0.1942083 0.9465188 -0.2576534
vn 0.04591829 0.9097968 -0.3671859
vn -0.1023717 0.8730748 -0.4767184
vn 0.1309849 0.9760661 0.173603
vn 0.3223247 0.05922058 0.07426868
vn 0.5136645 -0.8576249 -0.0250657
vn -0.006278829 0.999777 -0.02016534
vn -0.01591104 0.9994386 -0.02700976
vn -0.02554325 0.9991003 -0.03385418
vn -0.02693629 0.9749152 0.2209406
vn 0.05429705 0.9324765 0.3281078
vn 0.1355304 0.8900378 0.4352749
vn 0.4400373 0.8470199 -0.2982023
vn 0.258226 0.8112302 -0.4624911
vn 0.07641475 0.7754405 -0.6267798
vn -0.004777519 -0.9951718 -0.09803224
vn -0.03405578 -0.9965003 -0.03998143
vn -0.1432952 -0.9740833 0.05224598
vn -0.2881428 -0.9417687 0.06574525
vn -0.2107137 -0.9557019 0.2055082
vn -0.2019813 -0.9543126 0.1104094
vn -0.04184569 -0.990269 0.1147726
vn 0.003694231 -0.995015 0.09602805
vn 0.02599554 -0.996409 0.06068351
vn 0.04960876 -0.9981606 0.02116208
vn 0.02868699 -0.9989038 0.03657892
vn 0.02892962 -0.9987143 0.04148259
vn 0.03154789 -0.9985573 0.04326492
vn 0.001713916 -0.9988304 0.03046911
vn 0 -1 0
vn 0.2915922 -0.8229627 0.03108664
vn 0.1813737 -0.6811178 -0.0982036
vn -0.6331913 -0.7724644 0.04865774
vn -0.1971391 -0.8537496 -0.106658
vn 0.3571754 -0.807513 -0.05340359
vn 0.05882213 -0.9906088 0.0582871
vn 0.03215266 -0.9986475 0.040671
vn 0.03057181 -0.9988184 0.03739556
vn 0.03296575 -0.9989693 0.03037395
vn 0.0256031 -0.9985627 0.02008315
vn -0.006891753 -0.9981241 0.04834156
vn -8.618055E-05 -0.9956424 0.08774486
vn -0.01278869 -0.9951854 0.09711663
vn -0.04771942 -0.9948831 0.02052572

usemtl ProBuilderDefault
f 69/158/150 66/160/152 67/161/153
f 69/158/150 68/159/151 66/160/152
f 70/157/149 69/158/150 67/161/153
f 70/157/149 67/161/153 57/163/154
f 70/157/149 57/163/154 50/153/147
f 70/157/149 50/153/147 65/156/148
f 50/153/147 55/154/148 65/156/148
f 60/155/148 65/156/148 55/154/148
f 50/153/147 57/163/154 45/152/146
f 57/163/154 52/164/155 45/152/146
f 40/151/145 45/152/146 52/164/155
f 40/151/145 52/164/155 47/165/156
f 40/151/145 47/165/156 35/150/144
f 47/165/156 42/166/157 35/150/144
f 35/150/144 42/166/157 30/149/143
f 42/166/157 37/167/158 30/149/143
f 25/148/142 30/149/143 37/167/158
f 25/148/142 37/167/158 22/170/159
f 25/148/142 22/170/159 17/171/160
f 20/147/141 25/148/142 17/171/160
f 12/172/161 20/147/141 17/171/160
f 15/146/140 20/147/141 12/172/161
f 2/173/162 15/146/140 12/172/161
f 15/146/140 2/173/162 5/142/136
f 15/146/140 5/142/136 10/145/139
f 7/143/137 10/145/139 5/142/136
f 7/143/137 9/144/138 10/145/139
f 5/142/136 2/173/162 4/141/135
f 4/141/135 2/173/162 1/1/134
f 22/170/159 37/167/158 27/169/148
f 27/169/148 37/167/158 32/168/148
f 67/161/153 62/162/148 57/163/154
f 3/3/1 4/4/3 1/1/1
f 1/1/1 2/2/2 3/3/1
f 5/5/4 4/4/4 3/3/4
f 3/3/4 6/6/5 5/5/4
f 7/7/7 5/5/6 6/6/7
f 6/6/7 8/8/8 7/7/7
f 9/11/10 7/9/9 8/10/10
f 8/10/10 10/12/11 9/11/10
f 11/13/12 3/3/12 2/2/12
f 2/2/12 12/14/12 11/13/12
f 13/15/13 6/6/13 3/3/13
f 3/3/13 11/13/13 13/15/13
f 14/16/14 8/8/14 6/6/14
f 6/6/14 13/15/14 14/16/14
f 15/19/16 10/17/15 8/18/16
f 8/18/16 14/20/17 15/19/16
f 16/21/18 11/13/18 12/14/18
f 12/14/18 17/22/18 16/21/18
f 18/23/19 13/15/19 11/13/19
f 11/13/19 16/21/19 18/23/19
f 19/24/20 14/16/20 13/15/20
f 13/15/20 18/23/20 19/24/20
f 20/27/22 15/25/21 14/26/22
f 14/26/22 19/28/23 20/27/22
f 21/29/24 16/21/18 17/22/24
f 17/22/24 22/30/25 21/29/24
f 23/31/19 18/23/19 16/21/19
f 16/21/19 21/29/19 23/31/19
f 24/32/26 19/24/26 18/23/26
f 18/23/26 23/31/26 24/32/26
f 25/35/28 20/33/27 19/34/28
f 19/34/28 24/36/29 25/35/28
f 26/37/31 21/29/30 22/30/31
f 22/30/31 27/38/32 26/37/31
f 28/39/33 23/31/19 21/29/33
f 21/29/33 26/37/34 28/39/33
f 29/41/36 24/40/35 23/31/36
f 23/31/36 28/39/37 29/41/36
f 30/44/39 25/42/38 24/43/39
f 24/43/39 29/45/40 30/44/39
f 31/46/42 26/37/41 27/38/42
f 27/38/42 32/47/37 31/46/42
f 33/48/44 28/39/43 26/37/44
f 26/37/44 31/46/45 33/48/44
f 34/49/47 29/41/46 28/39/47
f 28/39/47 33/50/48 34/49/47
f 35/53/50 30/51/49 29/52/50
f 29/52/50 34/54/51 35/53/50
f 36/56/52 31/55/52 32/47/52
f 32/47/52 37/57/52 36/56/52
f 38/58/54 33/48/53 31/46/54
f 31/46/54 36/59/55 38/58/54
f 39/60/57 34/49/56 33/50/57
f 33/50/57 38/58/58 39/60/57
f 40/63/60 35/61/59 34/62/60
f 34/62/60 39/64/61 40/63/60
f 41/65/63 36/56/62 37/57/63
f 37/57/63 42/66/64 41/65/63
f 43/67/66 38/58/65 36/59/66
f 36/59/66 41/68/67 43/67/66
f 44/70/69 39/60/68 38/69/69
f 38/69/69 43/71/70 44/70/69
f 45/74/72 40/72/71 39/73/72
f 39/73/72 44/75/73 45/74/72
f 46/78/75 41/76/74 42/77/75
f 42/77/75 47/79/76 46/78/75
f 48/80/78 43/67/77 41/68/78
f 41/68/78 46/81/79 48/80/78
f 49/82/81 44/70/80 43/71/81
f 43/71/81 48/83/82 49/82/81
f 50/84/84 45/74/83 44/75/84
f 44/75/84 49/85/85 50/84/84
f 51/88/87 46/86/86 47/87/87
f 47/87/87 52/89/88 51/88/87
f 53/90/90 48/80/89 46/81/90
f 46/81/90 51/91/91 53/90/90
f 54/93/93 49/82/92 48/92/93
f 48/92/93 53/94/94 54/93/93
f 55/97/96 50/95/95 49/96/96
f 49/96/96 54/98/97 55/97/96
f 56/101/99 51/99/98 52/100/99
f 52/100/99 57/102/100 56/101/99
f 58/103/102 53/90/101 51/91/102
f 51/91/102 56/104/103 58/103/102
f 59/107/105 54/105/104 53/106/105
f 53/106/105 58/108/106 59/107/105
f 60/111/108 55/109/107 54/110/108
f 54/110/108 59/112/109 60/111/108
f 61/115/111 56/113/110 57/114/111
f 57/114/111 62/116/112 61/115/111
f 63/117/114 58/103/113 56/104/114
f 56/104/114 61/118/115 63/117/114
f 64/121/117 59/119/116 58/120/117
f 58/120/117 63/122/118 64/121/117
f 65/125/120 60/123/119 59/124/120
f 59/124/120 64/126/121 65/125/120
f 66/129/123 61/127/122 62/128/123
f 62/128/123 67/130/124 66/129/123
f 68/131/126 63/117/125 61/118/126
f 61/118/126 66/132/127 68/131/126
f 69/135/129 64/133/128 63/134/129
f 63/134/129 68/136/130 69/135/129
f 70/139/132 65/137/131 64/138/132
f 64/138/132 69/140/133 70/139/132

